<?xml version="1.0" encoding="utf-8"?>
<!-- Generator: Adobe Illustrator 27.3.1, SVG Export Plug-In . SVG Version: 6.00 Build 0)  -->
<svg version="1.1" id="Layer_1" xmlns="http://www.w3.org/2000/svg" xmlns:xlink="http://www.w3.org/1999/xlink" x="0px" y="0px"
	 viewBox="0 0 128 128" style="enable-background:new 0 0 128 128;" xml:space="preserve">
<style type="text/css">
	.st0{fill:#075B00;}
	.st1{fill:url(#SVGID_1_);}
	.st2{fill:none;}
	.st3{fill:#684F24;}
	.st4{fill:#BA9757;}
	.st5{fill:#A37C44;}
</style>
<g>
	<path class="st0" d="M12,126.9c-6,0-10.9-4.9-10.9-10.9V12C1.1,6,6,1.1,12,1.1h104c6,0,10.9,4.9,10.9,10.9v104
		c0,6-4.9,10.9-10.9,10.9H12z"/>
	<path d="M116,2.1c5.4,0,9.9,4.4,9.9,9.9v104c0,5.4-4.4,9.9-9.9,9.9H12c-5.4,0-9.9-4.4-9.9-9.9V12c0-5.4,4.4-9.9,9.9-9.9H116 M116,0
		H12C5.4,0,0,5.4,0,12v104c0,6.6,5.4,12,12,12h104c6.6,0,12-5.4,12-12V12C128,5.4,122.6,0,116,0L116,0z"/>
</g>
<radialGradient id="SVGID_1_" cx="64.5652" cy="101.3743" r="49.7632" gradientTransform="matrix(1 0 0 0.2629 0 74.7271)" gradientUnits="userSpaceOnUse">
	<stop  offset="0" style="stop-color:#FFFFFF"/>
	<stop  offset="0" style="stop-color:#031E00"/>
	<stop  offset="1" style="stop-color:#231F20;stop-opacity:0"/>
</radialGradient>
<ellipse class="st1" cx="64.6" cy="101.4" rx="50.5" ry="13.6"/>
<rect id="_x3C_Slice_x3E_" x="-1337" y="-1287" class="st2" width="999" height="1211"/>
<g>
	<polygon class="st3" points="26.3,77.9 24.1,28.3 62.6,46.8 62.6,102.3 	"/>
	<path d="M24.6,29.1l37.5,18.1v54.2L26.8,77.7L24.6,29.1 M23.6,27.4l2.2,50.8l37.3,25V46.5L23.6,27.4L23.6,27.4z"/>
</g>
<g>
	<polygon class="st4" points="63.6,46.8 108.1,28.2 104.6,81.6 63.6,102.4 	"/>
	<path d="M107.6,29l-3.4,52.3l-40,20.3V47.2L107.6,29 M108.7,27.4l-45.5,19v56.7l42-21.3L108.7,27.4L108.7,27.4z"/>
</g>
<g>
	<polygon class="st5" points="25,27.6 65.7,15.3 107.2,27.5 63.2,45.9 	"/>
	<path d="M65.7,15.8l40,11.8L63.2,45.4L26.3,27.7L65.7,15.8 M65.7,14.8L23.6,27.4l39.6,19l45.5-19L65.7,14.8L65.7,14.8z"/>
</g>
<g>
	<path d="M71.8,82.9l-1.1,0.4c0.1-0.8,0.1-1.4,0.2-1.9c0-0.5,0.1-1,0.1-1.5c0-0.5,0-0.9,0-1.2c-0.6-0.5-1-1.1-1.3-1.8
		c-0.3-0.7-0.4-1.3-0.4-2l0.5-8.3c0-0.6,0.2-1.2,0.6-1.7c0.3-0.5,0.7-0.9,1.3-1.1c0.5-0.2,1-0.3,1.4-0.1l-0.7,1.1
		c-0.2-0.1-0.4-0.1-0.6,0c-0.4,0.2-0.7,0.6-0.7,1.2l-0.5,8.3c0,0.6,0.1,1.2,0.4,1.8c0.3,0.6,0.7,1.1,1.3,1.6c0,0.2,0,0.5,0,0.8
		c0,0.3,0,0.5,0,0.8c0,0.5,0,1.1-0.1,1.6C71.9,81.5,71.9,82.1,71.8,82.9z M72.2,71.1l-0.6-0.6c0.4-0.5,0.8-0.9,1.2-1.3
		c0.4-0.4,0.9-0.8,1.3-1.2v-7.4c0-0.5,0.2-1,0.5-1.5c0.3-0.5,0.7-0.9,1.2-1.1c0.5-0.2,0.9-0.2,1.2-0.1c0.3,0.2,0.5,0.5,0.5,1V67
		c-1,0.4-1.9,1-2.8,1.7C73.9,69.3,73,70.1,72.2,71.1z M71.8,70.4v-6.9c0-0.6,0.2-1.1,0.5-1.6c0.3-0.5,0.8-0.9,1.3-1.1
		c0.6-0.3,1.1-0.3,1.5,0l-0.8,1.1c-0.2-0.1-0.4-0.1-0.6,0c-0.5,0.2-0.7,0.6-0.7,1.1v6.9L71.8,70.4z M78.2,79.9
		c0-0.6-0.1-1.1-0.1-1.5c0-0.4,0-0.7,0-1.1c0-0.3,0-0.6,0-0.8c0-0.3,0-0.6,0.1-1c0-0.4,0.2-0.8,0.5-1.2c0.3-0.4,0.6-0.8,0.9-1.2
		c0.3-0.4,0.6-0.8,0.7-1.2c0.2-0.4,0.3-0.9,0.4-1.4c0.1-0.5,0.3-1.1,0.5-1.7c0.2-0.6,0.6-1.1,1.1-1.6l0.6-0.5
		c0.3-0.3,0.5-0.6,0.5-0.9c0-0.3-0.3-0.2-1,0.1c-0.4,0.2-0.7,0.4-1.1,0.8c-0.4,0.3-0.7,0.7-0.9,1.2c-0.2,0.3-0.3,0.5-0.5,0.7
		c-0.2,0.2-0.3,0.3-0.5,0.4c-1,0.4-1.8,1-2.4,1.7c-0.6,0.7-1.1,1.6-1.5,2.7l-1,0.1c0.4-1.2,1-2.3,1.7-3.2c0.7-0.9,1.6-1.6,2.6-2.2
		v-8c0-0.2-0.1-0.3-0.2-0.3c-0.1-0.1-0.3,0-0.4,0c-0.3,0.1-0.5,0.4-0.8,0.8l-0.9-0.3c0.5-0.8,1-1.3,1.6-1.6c0.5-0.2,0.9-0.2,1.2-0.1
		c0.3,0.2,0.5,0.5,0.5,0.9v7.3l0.3-0.4c0.3-0.4,0.7-0.8,1-1.1c0.4-0.3,0.8-0.6,1.2-0.7c0.6-0.3,1.1-0.4,1.5-0.3s0.6,0.3,0.6,0.8
		c0,0.4-0.1,0.7-0.3,1.1c-0.2,0.4-0.5,0.7-0.9,1.1l-0.6,0.5c-0.3,0.3-0.5,0.6-0.6,1.1c-0.2,0.5-0.3,1-0.4,1.5
		c-0.1,0.5-0.3,1-0.5,1.4c-0.1,0.3-0.4,0.7-0.7,1.1c-0.3,0.4-0.6,0.9-0.9,1.2c-0.3,0.4-0.4,0.6-0.4,0.8c0,0.4-0.1,0.7-0.1,0.9
		c0,0.2,0,0.5,0,0.8c0,0.1,0,0.3,0,0.7s0,0.7,0,1s0,0.6,0,0.8L78.2,79.9z M75.3,67.3c0.2-0.1,0.4-0.3,0.6-0.4
		c0.2-0.1,0.4-0.2,0.6-0.3v-7c0-0.2-0.1-0.3-0.2-0.4c-0.1-0.1-0.3-0.1-0.5,0c-0.1,0.1-0.3,0.2-0.4,0.4c-0.1,0.2-0.2,0.4-0.2,0.6
		V67.3z M81.8,55.9l-2.7-2.2l0.8-1.1l2.7,2.2L81.8,55.9z M84.8,53.3v-4.9l1.1-0.5v4.9L84.8,53.3z M92.5,73.3l-1.1,0.5
		c0-0.2,0-0.5,0-0.8c0-0.4,0-0.7,0-1.1c0-0.3,0-0.6,0-0.7c0-0.3,0-0.5,0-0.7s0-0.5-0.1-0.8c0-0.1-0.2-0.2-0.4-0.4
		c-0.3-0.1-0.6-0.3-0.9-0.4c-0.3-0.2-0.5-0.3-0.7-0.5c-0.2-0.2-0.3-0.6-0.5-1c-0.1-0.4-0.3-0.8-0.4-1.1c-0.1-0.3-0.4-0.5-0.6-0.5
		l-0.6,0c-0.4,0-0.7-0.1-0.9-0.3c-0.2-0.2-0.3-0.4-0.3-0.8c0-0.5,0.2-0.9,0.6-1.4s0.9-0.8,1.5-1.1c0.4-0.2,0.8-0.3,1.2-0.3
		c0.4,0,0.7,0,1,0.1l0.3,0.1v-7.3c0-0.5,0.2-0.9,0.5-1.4c0.3-0.5,0.7-0.8,1.2-1c0.6-0.3,1.1-0.2,1.6,0.1l-0.9,1.1
		c-0.2-0.2-0.5-0.2-0.8-0.1c-0.2,0.1-0.3,0.2-0.4,0.4c-0.1,0.2-0.2,0.3-0.2,0.5v8c1-0.4,1.9-0.5,2.6-0.3c0.7,0.2,1.3,0.7,1.7,1.6
		l-1,0.9c-0.4-0.8-0.9-1.2-1.5-1.3s-1.4,0-2.4,0.5c-0.1,0.1-0.3,0.1-0.5,0c-0.2,0-0.3-0.1-0.5-0.2C90,63.1,89.7,63,89.3,63
		c-0.4,0-0.7,0.1-1.1,0.3c-0.7,0.3-1,0.6-1,0.8c0,0.3,0.2,0.4,0.5,0.4l0.6,0c0.5,0,0.9,0.2,1.1,0.5c0.2,0.4,0.4,0.8,0.5,1.2
		c0.1,0.4,0.3,0.8,0.4,1c0.2,0.2,0.4,0.4,0.7,0.5c0.3,0.1,0.6,0.2,0.9,0.4c0.3,0.2,0.5,0.4,0.5,0.8c0,0.4,0.1,0.7,0.1,0.9
		c0,0.3,0,0.5,0,0.8c0,0.3,0,0.7,0,1.1C92.5,72.1,92.5,72.6,92.5,73.3z M88.9,52.6L88,52.3l2.7-4.6l0.8,0.3L88.9,52.6z M98.5,58.9
		c-0.8-0.2-1.7-0.2-2.6,0C95,59,94,59.3,93.1,59.8v-7.9c0-0.5,0.2-1,0.5-1.5c0.3-0.5,0.7-0.9,1.2-1.1c0.5-0.2,0.9-0.2,1.2,0
		c0.3,0.2,0.5,0.6,0.5,1.1v7.4c0.5-0.1,0.9-0.1,1.3-0.1c0.4,0,0.8,0.1,1.2,0.2L98.5,58.9z M95.4,57.9v-7.1c0-0.2-0.1-0.4-0.2-0.4
		c-0.1-0.1-0.3-0.1-0.4,0c-0.2,0.1-0.3,0.2-0.5,0.4c-0.1,0.2-0.2,0.4-0.2,0.5v7c0.2-0.1,0.4-0.2,0.6-0.2C95,58,95.2,57.9,95.4,57.9z
		 M97.8,58.4v-6.9c0-0.5-0.2-0.7-0.7-0.5c-0.2,0.1-0.5,0.3-0.6,0.6l-0.8-0.4c0.4-0.6,0.9-1.1,1.5-1.3c0.5-0.3,1-0.3,1.3-0.1
		c0.3,0.2,0.5,0.6,0.5,1.1v6.9L97.8,58.4z M98.8,70.4c-0.1-0.7-0.1-1.3-0.2-1.8c0-0.5-0.1-1-0.1-1.5c0-0.3,0-0.6,0-0.9
		c0-0.3,0-0.5,0-0.8c0.6-1,1-2,1.3-2.8c0.3-0.9,0.4-1.6,0.4-2.1l-0.5-7.8c0-0.6-0.3-0.8-0.7-0.6c-0.2,0.1-0.4,0.3-0.6,0.5l-0.7-0.4
		c0.4-0.5,0.8-0.9,1.4-1.2c0.5-0.2,0.9-0.3,1.3-0.1c0.3,0.2,0.5,0.6,0.5,1.2l0.5,7.8c0,0.6-0.1,1.4-0.4,2.4c-0.3,0.9-0.8,2-1.3,3.1
		c0,0.4,0,0.8,0,1.3c0,0.5,0,1,0.1,1.5c0,0.5,0.1,1.1,0.2,1.8L98.8,70.4z"/>
</g>
<g>
	<path d="M42.6,77.6l-1.1-4.4l1.3-2.5c-0.7-0.6-1.3-1.3-1.8-2.2c-0.6-0.9-1-1.8-1.4-2.8c-0.3-1-0.5-1.9-0.6-2.8L36,62.7l-2.5-3.2
		l-0.1-1.3l2.9-1.2l4.1,2.3c0.6-0.6,1.2-1.2,2-1.7c0.8-0.5,1.7-0.8,2.6-1c0.9-0.2,1.9-0.4,2.9-0.4c1,0,1.9,0.1,2.8,0.4
		c0.9,0.3,1.8,0.7,2.5,1.3c0.8,0.6,1.3,1.3,1.8,2.1c0.4,0.8,0.6,1.7,0.6,2.6c0,0.9-0.2,1.7-0.5,2.5c-0.3,0.8-0.8,1.6-1.4,2.3
		c-0.6,0.7-1.3,1.4-2.1,1.9c-0.8,0.6-1.6,1-2.4,1.4c-0.9,0.4-1.7,0.6-2.5,0.7l-0.6,5l-2.6,1.6L42.6,77.6z M36.3,71l0.1-1.2
		c-0.4-0.3-0.8-0.5-1.2-0.8s-0.7-0.5-1.1-0.8c0.2-0.4,0.4-0.7,0.6-1.1c0.2-0.4,0.3-0.7,0.4-1.1c0.1-0.4,0.3-0.7,0.4-0.9
		c0.2-0.2,0.4-0.4,0.7-0.5c0.4-0.2,0.8-0.2,1.3,0c0.5,0.2,1,0.4,1.5,0.8v1.1c-0.4-0.3-0.8-0.5-1.2-0.6c-0.4-0.1-0.7-0.1-1,0
		c-0.2,0.1-0.4,0.2-0.5,0.4c-0.1,0.2-0.3,0.4-0.4,0.7c-0.1,0.2-0.1,0.4-0.2,0.5c-0.1,0.2-0.1,0.4-0.2,0.5c0.2,0.1,0.4,0.3,0.7,0.4
		c0.3,0.2,0.6,0.3,0.9,0.5l0.1,1.2c0.4,0.1,0.7,0.2,1,0.1c0.3,0,0.6-0.1,0.9-0.2c0.4-0.2,0.6-0.6,0.8-1.3l0.8,1
		c-0.1,0.4-0.3,0.7-0.4,1c-0.2,0.3-0.4,0.5-0.6,0.6c-0.5,0.3-1.1,0.4-1.6,0.3C37.6,71.6,37,71.4,36.3,71z M36,61.4l3.1,0.3
		c0.1-0.3,0.2-0.6,0.3-0.8c0.1-0.3,0.3-0.5,0.4-0.7l-3.1-1.8l-2.4,1L36,61.4z M41.3,70.9c-0.3-0.3-0.7-0.7-1.1-1.3
		c-0.4-0.6-0.8-1.2-1.1-1.9c-0.4-0.7-0.6-1.4-0.9-2.1c-0.2-0.7-0.3-1.2-0.4-1.6c0.3-0.3,0.7-0.5,1.2-0.5l1.4,3.7l2,3.2
		c-0.2,0.2-0.3,0.3-0.5,0.4C41.7,70.9,41.5,70.9,41.3,70.9z M42.9,69.8c0.5,0.4,1.1,0.7,1.8,0.8c0.7,0.1,1.4,0.1,2.2-0.1
		c0.8-0.2,1.5-0.4,2.3-0.8c0.8-0.4,1.5-0.9,2.1-1.4c0.7-0.5,1.3-1.1,1.8-1.8c0.5-0.7,0.9-1.4,1.3-2.1c0.3-0.7,0.5-1.5,0.5-2.2
		c0-0.5-0.1-1-0.3-1.5c-0.2-0.5-0.6-1-1.2-1.4c-0.7-0.6-1.5-1-2.5-1.2s-1.9-0.3-2.9-0.3c-1,0-2,0.2-2.9,0.5
		c-0.9,0.3-1.8,0.7-2.6,1.2c-0.8,0.5-1.4,1.1-1.8,1.8c-0.5,0.7-0.7,1.5-0.7,2.3c0,0.7,0.1,1.4,0.4,2.3c0.3,0.8,0.7,1.6,1.1,2.3
		C41.9,68.8,42.4,69.4,42.9,69.8z M46.5,71.2c-0.5-0.4-1-1.1-1.6-2c-0.6-0.9-1.2-2-1.9-3.2c-0.4-0.7-0.7-1.5-1-2.3
		c-0.3-0.8-0.6-1.6-0.8-2.4c-0.2-0.8-0.3-1.4-0.3-1.9l0.7-0.1c0,0.4,0.1,0.9,0.3,1.6c0.2,0.7,0.4,1.5,0.7,2.3c0.3,0.8,0.6,1.6,1,2.4
		c0.6,1.1,1.2,2.2,1.8,3.1c0.6,0.9,1.1,1.5,1.6,1.9L46.5,71.2z M43.2,76.9l2.1-1.3l0.4-3.8c-0.7,0-1.3-0.1-1.9-0.4l-1.4,2.6
		L43.2,76.9z M47.2,66.1c-0.5-0.4-1-1-1.3-1.7c-0.4-0.7-0.5-1.4-0.5-2.1c0-0.6,0.2-1.1,0.5-1.2c0.4-0.2,0.8-0.1,1.3,0.3
		c0.5,0.4,1,1,1.3,1.7c0.4,0.7,0.5,1.4,0.5,2.1c0,0.6-0.2,1-0.5,1.2C48.2,66.6,47.8,66.5,47.2,66.1z M53.3,67.4
		c-0.6-0.5-1.2-1.2-1.8-2c-0.6-0.8-1.2-1.8-1.7-2.8c-0.5-1-0.9-1.9-1.2-3c-0.3-1-0.5-2-0.5-2.8l0.9,0.6c0,0.5,0.1,1.2,0.3,2.1
		c0.2,0.9,0.6,1.8,1.1,2.7c0.5,1,1,1.8,1.5,2.5c0.5,0.7,1,1.2,1.4,1.5L53.3,67.4z"/>
</g>
<g>
	<path d="M83.3,31.5c-1,0.5-2.3,0.8-3.9,0.8c-1.6,0-3.2-0.2-4.9-0.7c-0.8-0.2-1.5-0.4-2.1-0.5C71.7,31,71.1,31,70.6,31
		c-0.8,0-1.5,0.1-2.1,0.2c-0.6,0.1-1.1,0.2-1.7,0.4c-0.5,0.1-1,0.2-1.6,0.3C64.7,32,64.1,32,63.3,32c-0.9,0-1.7,0-2.6-0.2
		c-0.9-0.2-1.8-0.4-2.9-0.7c-1.5,0-2.8,0-3.9-0.1c-1.1-0.1-2.1-0.4-2.8-0.7c-0.5-0.2-0.9-0.5-1.3-0.9c-0.4-0.3-0.6-0.7-0.8-1.1
		c-0.2-0.4-0.3-0.7-0.2-1c0-0.3,0.2-0.5,0.5-0.7c0.3-0.2,0.8-0.3,1.5-0.3c0.7,0,1.4,0,2.3,0c0.8,0.1,1.6,0.1,2.3,0.3
		c0.7,0.1,1.3,0.3,1.7,0.5c0.3,0.1,0.5,0.3,0.8,0.5c0.3,0.2,0.5,0.3,0.7,0.4c0.1,0.1,0.3,0.1,0.4,0.2c0.1,0,0.3,0,0.6-0.1
		c0.3,0,0.8-0.1,1.4-0.2c1.3-0.3,2.5-0.5,3.5-0.6c1.1-0.1,2.1-0.2,3-0.2c0.9,0,1.9,0.1,2.9,0.3c1,0.2,2,0.4,3.1,0.8
		c1.1,0.4,2.4,0.8,3.8,1.4c0.7,0.3,1.3,0.4,1.8,0.5c0.5,0.1,0.9,0,1.1-0.1c0.2-0.1,0.3-0.2,0.2-0.3c-0.1-0.1-0.3-0.3-0.5-0.4
		c-0.2-0.1-0.4-0.2-0.7-0.3c-0.3-0.1-0.6-0.1-0.9-0.2c0.1-0.1,0.2-0.1,0.2-0.2c0.1,0,0.1-0.1,0.2-0.1c0.4-0.2,1-0.4,1.5-0.4
		c0.6-0.1,1.2-0.1,1.8,0c0.6,0.1,1.1,0.2,1.6,0.5c0.6,0.3,0.9,0.6,1.1,1c0.2,0.4,0.1,0.7-0.1,1.1C84.4,30.8,84,31.1,83.3,31.5z
		 M82.5,31c0.7-0.4,1.1-0.7,1.2-1.2c0.1-0.4-0.2-0.8-0.8-1.1c-0.5-0.2-1-0.4-1.7-0.4c-0.6,0-1.2,0.1-1.7,0.2l0.3-0.2
		c0.3,0.1,0.6,0.1,0.8,0.2c0.2,0.1,0.4,0.2,0.6,0.3c0.3,0.2,0.5,0.4,0.5,0.6c0.1,0.3-0.1,0.5-0.5,0.7c-0.5,0.2-1.2,0.3-2,0.2
		c-0.8-0.1-1.7-0.3-2.5-0.6c-1.6-0.7-3.1-1.2-4.3-1.5c-1.2-0.4-2.3-0.6-3.4-0.7c-1.1-0.1-2.2-0.1-3.4,0c-1.2,0.1-2.5,0.3-4.1,0.6
		c-0.6,0.1-1.2,0.2-1.6,0.3c-0.4,0-0.7,0.1-1,0.1c-0.2,0-0.3,0-0.5-0.1c-0.2,0-0.3-0.1-0.5-0.2c-0.1,0-0.2-0.1-0.4-0.2
		c-0.2-0.1-0.3-0.2-0.6-0.3c-0.2-0.1-0.4-0.2-0.7-0.3c-0.3-0.1-0.7-0.3-1.3-0.4c-0.6-0.1-1.2-0.2-1.9-0.2c-0.7-0.1-1.3-0.1-1.8-0.1
		c-0.5,0-0.9,0.1-1.1,0.2c-0.2,0.1-0.3,0.2-0.2,0.5c0,0.2,0.1,0.5,0.3,0.8c0.2,0.3,0.4,0.6,0.7,0.9c0.3,0.3,0.6,0.5,1,0.7
		c1.2,0.6,3.2,0.8,6.1,0.7c1.2,0.4,2.1,0.6,2.9,0.8c0.7,0.1,1.5,0.2,2.2,0.2c0.6,0,1.2-0.1,1.6-0.1c0.5-0.1,0.9-0.2,1.4-0.3
		c0.5-0.1,1.2-0.3,1.8-0.4c0.7-0.1,1.5-0.2,2.4-0.2c0.7,0,1.4,0,2.2,0.1c0.8,0.1,1.6,0.3,2.4,0.5c1.5,0.4,2.9,0.6,4.2,0.6
		C80.6,31.6,81.7,31.4,82.5,31z M53.2,29.6c-0.2,0.1-0.5,0.2-0.8,0.2c-0.3,0-0.6-0.1-0.8-0.2c-0.2-0.1-0.3-0.2-0.3-0.4
		c0-0.2,0.1-0.3,0.3-0.4c0.2-0.1,0.5-0.2,0.8-0.2c0.3,0,0.6,0.1,0.8,0.2c0.2,0.1,0.3,0.2,0.3,0.4C53.5,29.4,53.4,29.5,53.2,29.6z
		 M55.5,28c-0.2,0.1-0.5,0.2-0.8,0.2c-0.3,0-0.6-0.1-0.8-0.2c-0.2-0.1-0.3-0.2-0.3-0.4c0-0.2,0.1-0.3,0.3-0.4
		c0.2-0.1,0.5-0.2,0.8-0.2c0.3,0,0.6,0.1,0.8,0.2c0.2,0.1,0.3,0.2,0.3,0.4C55.9,27.7,55.7,27.8,55.5,28z M57.4,33
		c-0.1,0.1-0.3,0.1-0.4,0.1c-0.2,0-0.3,0-0.5-0.1c-0.1-0.1-0.2-0.1-0.2-0.2c0-0.1,0.1-0.2,0.2-0.2c0.1-0.1,0.3-0.1,0.4-0.1
		c0.2,0,0.3,0,0.4,0.1c0.1,0.1,0.2,0.1,0.2,0.2C57.6,32.9,57.5,33,57.4,33z M57.7,33.7c-0.1,0.1-0.3,0.1-0.4,0.1
		c-0.2,0-0.3,0-0.5-0.1c-0.1-0.1-0.2-0.1-0.2-0.2c0-0.1,0.1-0.2,0.2-0.2c0.1-0.1,0.3-0.1,0.4-0.1c0.2,0,0.3,0,0.4,0.1
		c0.1,0.1,0.2,0.1,0.2,0.2C57.9,33.6,57.9,33.7,57.7,33.7z M58.1,32.3c-0.1,0.1-0.3,0.1-0.4,0.1c-0.2,0-0.3,0-0.5-0.1
		c-0.1-0.1-0.2-0.1-0.2-0.2c0-0.1,0.1-0.2,0.2-0.2c0.1-0.1,0.3-0.1,0.4-0.1c0.2,0,0.3,0,0.4,0.1c0.1,0.1,0.2,0.1,0.2,0.2
		C58.2,32.2,58.2,32.2,58.1,32.3z M62.6,33.1c-0.4,0.2-0.9,0.3-1.4,0.4c-0.5,0-1,0-1.6-0.2l-0.9,0.4l-0.2-0.1l0.4-0.4l-1.2,0.2
		l-0.2-0.1l0.9-0.3l-1.2-0.1l0.2-0.2l1.1,0.1l-0.8-0.5l0.3-0.1l1.9,0.6l1.2-0.1l-0.6-1.2l2.3,0.1c0,0.2,0.1,0.4,0.1,0.6
		c0,0.2,0,0.5-0.1,0.7C62.8,33,62.7,33.1,62.6,33.1z M59,26.1c-0.1,0.1-0.3,0.1-0.4,0.1c-0.2,0-0.3,0-0.5-0.1
		C58,26,57.9,26,57.9,25.9c0-0.1,0.1-0.2,0.2-0.2c0.1-0.1,0.3-0.1,0.4-0.1c0.2,0,0.3,0,0.4,0.1c0.1,0.1,0.2,0.1,0.2,0.2
		C59.2,26,59.1,26.1,59,26.1z M59.2,34.1c-0.1,0.1-0.3,0.1-0.4,0.1c-0.2,0-0.3,0-0.5-0.1c-0.1-0.1-0.2-0.1-0.2-0.2
		c0-0.1,0.1-0.2,0.2-0.2c0.1-0.1,0.3-0.1,0.4-0.1c0.2,0,0.3,0,0.4,0.1c0.1,0.1,0.2,0.1,0.2,0.2C59.4,34,59.3,34,59.2,34.1z M59.2,27
		C59.1,27,58.9,27,58.8,27c-0.2,0-0.3,0-0.5-0.1c-0.1-0.1-0.2-0.1-0.2-0.2c0-0.1,0.1-0.2,0.2-0.2c0.1-0.1,0.3-0.1,0.4-0.1
		c0.2,0,0.3,0,0.4,0.1c0.1,0.1,0.2,0.1,0.2,0.2C59.4,26.8,59.3,26.9,59.2,27z M59.5,30.8c-0.2,0.1-0.3,0.1-0.6,0.1
		c-0.2,0-0.4,0-0.6-0.1c-0.2-0.1-0.2-0.2-0.2-0.3c0-0.1,0.1-0.2,0.2-0.3c0.2-0.1,0.3-0.1,0.6-0.1c0.2,0,0.4,0,0.6,0.1
		c0.2,0.1,0.2,0.2,0.2,0.3C59.8,30.6,59.7,30.7,59.5,30.8z M61.6,27l-2.9-0.1l0.1-0.3l1-0.1L58.5,26l0.4-0.2l1,0.3l-0.4-0.5l0.5-0.1
		l0.6,0.5l0.1-0.5l0.4,0.1L61.6,27z M59.9,25.5c-0.1,0.1-0.3,0.1-0.4,0.1c-0.2,0-0.3,0-0.5-0.1c-0.1-0.1-0.2-0.1-0.2-0.2
		c0-0.1,0.1-0.2,0.2-0.2c0.1-0.1,0.3-0.1,0.4-0.1c0.2,0,0.3,0,0.4,0.1c0.1,0.1,0.2,0.1,0.2,0.2C60.1,25.4,60.1,25.5,59.9,25.5z
		 M64.1,27.3l-2.4,0.4l-1.2-1l0.5-0.6c0.7,0.1,1.3,0.3,1.8,0.5C63.2,26.9,63.6,27.1,64.1,27.3z M61.5,25.6c-0.1,0.1-0.3,0.1-0.4,0.1
		c-0.2,0-0.3,0-0.5-0.1c-0.1-0.1-0.2-0.1-0.2-0.2c0-0.1,0.1-0.2,0.2-0.2c0.1-0.1,0.3-0.1,0.4-0.1c0.2,0,0.3,0,0.4,0.1
		c0.1,0.1,0.2,0.1,0.2,0.2C61.7,25.5,61.6,25.5,61.5,25.6z M63.5,30.2c-0.2,0.1-0.3,0.1-0.6,0.1c-0.2,0-0.4,0-0.6-0.1
		c-0.2-0.1-0.2-0.2-0.2-0.3c0-0.1,0.1-0.2,0.2-0.3c0.2-0.1,0.3-0.1,0.6-0.1c0.2,0,0.4,0,0.6,0.1c0.2,0.1,0.2,0.2,0.2,0.3
		C63.8,30,63.7,30.1,63.5,30.2z M66.5,30.9C66.3,31,66.1,31,65.9,31c-0.2,0-0.4,0-0.6-0.1c-0.2-0.1-0.2-0.2-0.2-0.3
		c0-0.1,0.1-0.2,0.2-0.3c0.2-0.1,0.3-0.1,0.6-0.1c0.2,0,0.4,0,0.6,0.1c0.2,0.1,0.2,0.2,0.2,0.3C66.7,30.8,66.6,30.9,66.5,30.9z
		 M66.6,28.9C66.4,29,66.2,29,66,29c-0.2,0-0.4,0-0.6-0.1c-0.2-0.1-0.2-0.2-0.2-0.3c0-0.1,0.1-0.2,0.2-0.3c0.2-0.1,0.3-0.1,0.6-0.1
		c0.2,0,0.4,0,0.6,0.1c0.2,0.1,0.2,0.2,0.2,0.3C66.8,28.7,66.7,28.8,66.6,28.9z M71.1,32.9l-0.7-0.3L68.7,33
		c0.2-0.1,0.3-0.2,0.4-0.3c0.1-0.1,0-0.2-0.1-0.2c-0.1,0-0.2-0.1-0.4-0.1c-0.2,0-0.3,0-0.5,0c-0.2,0-0.3,0-0.5,0
		c-0.1,0-0.2,0-0.3-0.1c-0.1,0-0.1-0.2-0.1-0.3c0-0.2,0-0.3,0.1-0.5c0-0.2,0.1-0.4,0.2-0.5l3.7-0.5c-0.4,0.2-0.8,0.4-1.1,0.7
		c-0.3,0.2-0.6,0.5-0.7,0.6c1.3-0.2,2.1-0.2,2.4,0c0.2,0.1,0.2,0.2,0.2,0.3c0,0.1-0.1,0.3-0.3,0.4S71.2,32.8,71.1,32.9z M68.4,33.6
		c-0.1,0.1-0.3,0.1-0.4,0.1c-0.2,0-0.3,0-0.4-0.1c-0.1-0.1-0.2-0.1-0.2-0.2c0-0.1,0.1-0.2,0.2-0.2c0.1-0.1,0.3-0.1,0.4-0.1
		c0.2,0,0.3,0,0.4,0.1c0.1,0.1,0.2,0.1,0.2,0.2C68.6,33.5,68.5,33.5,68.4,33.6z M71.3,33.7l-0.6,0.1l-0.5-1l-0.5,1.1l-0.5,0l0.2-1
		l-0.9,0.5l-0.7-0.2l2.5-1.2l2,1.2l-0.3,0.1l-1.2-0.6L71.3,33.7z M69.7,29.4c-0.2,0.1-0.3,0.1-0.6,0.1c-0.2,0-0.4,0-0.6-0.1
		c-0.2-0.1-0.2-0.2-0.2-0.3c0-0.1,0.1-0.2,0.2-0.3c0.2-0.1,0.3-0.1,0.6-0.1c0.2,0,0.4,0,0.6,0.1c0.2,0.1,0.2,0.2,0.2,0.3
		C69.9,29.2,69.9,29.3,69.7,29.4z M69.8,34.1c-0.1,0.1-0.3,0.1-0.4,0.1c-0.2,0-0.3,0-0.4-0.1c-0.1-0.1-0.2-0.1-0.2-0.2
		c0-0.1,0.1-0.2,0.2-0.2c0.1-0.1,0.3-0.1,0.4-0.1c0.2,0,0.3,0,0.4,0.1c0.1,0.1,0.2,0.1,0.2,0.2C70,34,69.9,34.1,69.8,34.1z
		 M72.6,27.9l-3.3-0.6C69,27.2,68.9,27,69,26.9c0.1-0.1,0.3-0.3,0.6-0.4c0.2-0.1,0.5-0.2,0.8-0.4c0.3-0.1,0.6-0.2,0.9-0.3l1-0.5
		c0.1,0,0.3,0,0.4,0.1c0.1,0.1,0.2,0.2,0.3,0.3c0,0.1,0,0.2-0.1,0.3l-1.6,1.2L72.6,27.9z M70.2,25.8c-0.1,0.1-0.3,0.1-0.4,0.1
		c-0.2,0-0.3,0-0.5-0.1c-0.1-0.1-0.2-0.1-0.2-0.2c0-0.1,0.1-0.2,0.2-0.2c0.1-0.1,0.3-0.1,0.4-0.1c0.2,0,0.3,0,0.5,0.1
		c0.1,0.1,0.2,0.1,0.2,0.2C70.3,25.7,70.3,25.7,70.2,25.8z M70.2,24.9C70.1,25,69.9,25,69.8,25c-0.2,0-0.3,0-0.5-0.1
		c-0.1-0.1-0.2-0.1-0.2-0.2c0-0.1,0.1-0.2,0.2-0.2c0.1-0.1,0.3-0.1,0.4-0.1c0.2,0,0.3,0,0.5,0.1c0.1,0.1,0.2,0.1,0.2,0.2
		C70.4,24.8,70.3,24.9,70.2,24.9z M72.7,25.8l-2.7,0l-0.1-0.3l1.4,0l-1.4-0.6l0.2-0.2l1,0.4l-0.4-0.6l0.3-0.1l0.7,0.7l0.1-0.6
		l0.5,0.1L72.7,25.8z M71.3,24.4c-0.1,0.1-0.3,0.1-0.4,0.1c-0.2,0-0.3,0-0.5-0.1c-0.1-0.1-0.2-0.1-0.2-0.2c0-0.1,0.1-0.2,0.2-0.2
		c0.1-0.1,0.3-0.1,0.4-0.1c0.2,0,0.3,0,0.5,0.1c0.1,0.1,0.2,0.1,0.2,0.2C71.5,24.3,71.4,24.3,71.3,24.4z M71.5,34.1
		c-0.1,0.1-0.3,0.1-0.4,0.1c-0.2,0-0.3,0-0.4-0.1c-0.1-0.1-0.2-0.1-0.2-0.2c0-0.1,0.1-0.2,0.2-0.2c0.1-0.1,0.3-0.1,0.4-0.1
		c0.2,0,0.3,0,0.4,0.1c0.1,0.1,0.2,0.1,0.2,0.2C71.7,33.9,71.6,34,71.5,34.1z M72.8,33.6c-0.1,0.1-0.3,0.1-0.4,0.1
		c-0.2,0-0.3,0-0.4-0.1c-0.1-0.1-0.2-0.1-0.2-0.2c0-0.1,0.1-0.2,0.2-0.2c0.1-0.1,0.3-0.1,0.4-0.1c0.2,0,0.3,0,0.4,0.1
		c0.1,0.1,0.2,0.1,0.2,0.2C73,33.5,72.9,33.6,72.8,33.6z M72.9,24.5c-0.1,0.1-0.3,0.1-0.4,0.1c-0.2,0-0.3,0-0.5-0.1
		c-0.1-0.1-0.2-0.1-0.2-0.2c0-0.1,0.1-0.2,0.2-0.2c0.1-0.1,0.3-0.1,0.4-0.1c0.2,0,0.3,0,0.5,0.1c0.1,0.1,0.2,0.1,0.2,0.2
		C73,24.4,73,24.5,72.9,24.5z M74,29.2c-0.2,0.1-0.3,0.1-0.6,0.1c-0.2,0-0.4,0-0.6-0.1c-0.2-0.1-0.2-0.2-0.2-0.3
		c0-0.1,0.1-0.2,0.2-0.3c0.2-0.1,0.3-0.1,0.6-0.1c0.2,0,0.4,0,0.6,0.1s0.2,0.2,0.2,0.3C74.2,29.1,74.2,29.2,74,29.2z M75.7,31.1
		c-0.2,0.1-0.3,0.1-0.6,0.1c-0.2,0-0.4,0-0.6-0.1c-0.2-0.1-0.2-0.2-0.2-0.3c0-0.1,0.1-0.2,0.2-0.3c0.2-0.1,0.3-0.1,0.6-0.1
		c0.2,0,0.4,0,0.6,0.1c0.2,0.1,0.2,0.2,0.2,0.3C75.9,31,75.8,31.1,75.7,31.1z"/>
</g>
<g>
	<path class="st0" d="M-48.7,9.7L-48.7,9.7c-0.1,0-0.1,0.1-0.1,0.1l0,0c0,0.1,0.1,0.1,0.1,0.1l0,0c0.1,0,0.1-0.1,0.1-0.1l0,0
		C-48.5,9.8-48.6,9.7-48.7,9.7z"/>
	<path d="M-48.7,9.7c-0.1,0-0.1,0.1-0.1,0.1s0.1,0.1,0.1,0.1s0.1-0.1,0.1-0.1S-48.6,9.7-48.7,9.7L-48.7,9.7z"/>
</g>
</svg>
